<svg version="1.1" id="Layer_1" xmlns:x="ns_extend;" xmlns:i="ns_ai;" xmlns:graph="ns_graphs;" xmlns="http://www.w3.org/2000/svg" xmlns:xlink="http://www.w3.org/1999/xlink" x="0px" y="0px" viewBox="0 0 335.7 50" style="enable-background:new 0 0 335.7 50;" xml:space="preserve">
 <style type="text/css">
  .st0{fill:#4B3C3C;}
	.st1{fill:#FFCD00;}
	.st2{fill:none;stroke:#4B3C3C;stroke-width:1.589;stroke-miterlimit:10;}
 </style>
 <metadata>
  <sfw xmlns="ns_sfw;">
   <slices>
   </slices>
   <sliceSourceBounds bottomLeftOrigin="true" height="50" width="335.7" x="-167.9" y="0">
   </sliceSourceBounds>
  </sfw>
 </metadata>
 <g>
  <path class="st0" d="M330.8,20.3h0.8c0.7,0,0.9,0.3,0.9,1.5c0,1.3-0.2,1.5-0.9,1.5h-0.8V20.3z M330.8,32.3v-6.3h0.8
		c0.6,0,1,0.2,1,0.7v5c0,0.2,0.1,0.4,0.2,0.6h3c-0.2-0.2-0.2-0.4-0.2-1.6v-3.2c0-1.8-0.6-2.7-1.8-2.9c1.1-0.2,1.8-1.2,1.7-2.2v-1.8
		c0-2.3-1.2-3-3.8-3h-3.8v14.6L330.8,32.3z M325.1,17.7h-3v14.6h3V17.7z M316.5,28l-2.6-10.3h-3.8v14.6h2.8V22.1l2.6,10.2h3.7V17.7
		h-2.8L316.5,28z M301.7,32.3h6.2v-2.7h-3.1V26h3v-2.6h-3v-3h3.1v-2.6h-6.2V32.3z M296.8,17.7L295.4,29L294,17.7h-3.1l2.5,14.6h4
		l2.5-14.6H296.8z M286.6,20.2l0.7,6.9h-1.5L286.6,20.2z M285.2,32.3l0.3-2.6h2.1l0.3,2.6h3.1l-2.5-14.6h-4L282,32.3H285.2z
		 M278,17.7v2.6h1l-1.2,2.6h1.5l1.4-2.6v-2.6L278,17.7z M279.4,32.3v-2.7h-3.1V17.7h-3v14.6L279.4,32.3z M262.4,20.3h0.8
		c0.7,0,0.9,0.3,0.9,1.5c0,1.3-0.2,1.5-0.9,1.5h-0.8V20.3z M262.4,32.3V26h0.8c0.6,0,1,0.2,1,0.7v5c0,0.2,0.1,0.4,0.2,0.6h3
		c-0.2-0.2-0.2-0.4-0.2-1.6v-3.2c0-1.8-0.6-2.7-1.8-2.9c1.1-0.2,1.8-1.2,1.7-2.2v-1.8c0-2.3-1.2-3-3.8-3h-3.8v14.6L262.4,32.3z
		 M256.6,17.7h-3v14.6h3V17.7z M248.7,17.7L247.3,29l-1.4-11.3h-3.1l2.5,14.6h4l2.5-14.6H248.7z M237.1,20.3h0.8
		c0.7,0,0.9,0.3,0.9,1.5c0,1.3-0.2,1.5-0.9,1.5h-0.8V20.3z M237.1,32.3V26h0.8c0.6,0,1,0.2,1,0.7v5c0,0.2,0.1,0.4,0.2,0.6h3
		c-0.2-0.2-0.2-0.4-0.2-1.6v-3.2c0-1.8-0.6-2.7-1.8-2.9c1.1-0.2,1.8-1.2,1.7-2.2v-1.8c0-2.3-1.2-3-3.8-3H234v14.6L237.1,32.3z
		 M225.6,32.3h6.2v-2.7h-3.1V26h3v-2.6h-3v-3h3.1v-2.6h-6.2L225.6,32.3z M223.4,22.1V21c0-2.6-1.2-3.5-3.7-3.5
		c-2.9,0-3.9,1.1-3.9,3.7c0,4.9,4.7,4.5,4.7,7.6c0,0.8-0.2,1.2-0.8,1.2s-0.8-0.4-0.8-1.2v-1h-3V29c0,2.7,1.1,3.5,3.8,3.5
		c2.9,0,3.9-1,3.9-4c0-4.8-4.7-4.8-4.7-7.3c0-0.8,0.2-1.2,0.8-1.2s0.8,0.4,0.8,1.2v0.8L223.4,22.1z">
  </path>
  <path class="st1" d="M142.8,16.3c-2.3,0-3.4,4.1-2.7,10.2c0.8,7.4,7.4,7.4,11.9,5.5v3.6c-2.3,0.6-4.6,0.9-6.9,1
		c-6.3,0.5-11.9-4.2-12.4-10.5c0-0.5,0-1,0-1.5c0-4.7,1.7-11.2,10.6-11.2c4.8-0.4,8.9,3.2,9.3,8c0,0.3,0,0.7,0,1h-7.1
		C145.5,19.1,144.8,16.3,142.8,16.3 M174.3,24.8h-12.9v0.1c0.4,9.1,7.2,8.9,12,7v3.6c-2.2,0.6-4.5,1-6.8,1c-11,0-12.6-8.1-12.6-12.3
		c0-4.8,2.1-11,10.5-10.9c6.2,0,9.7,3.9,9.7,9.3L174.3,24.8z M166.7,21.6v-0.4c-0.1-2.2-0.6-4.8-2.5-4.8c-1.8,0-2.5,2.2-2.7,5.1v0.2
		L166.7,21.6L166.7,21.6z M104.7,35.9h-12c-4.4,0-7.6-1.8-7.6-6.7c-0.1-3.2,1.9-6,5-6.8c1.3-0.4,2.7-0.7,4-0.8
		c1.3-0.1,2.4-0.1,3.1-0.1h0.1v-0.7c0-5.1-5.1-4.6-8-3.7c-0.5,0.1-1,0.3-1.5,0.5v-3.4c2.3-0.6,4.7-0.8,7.1-0.8c6.4,0,9.9,3,9.9,8.1
		L104.7,35.9z M97.3,32.8v-8.6h-0.1c-2.4-0.1-4.5,1.9-4.5,4.3c0,0.1,0,0.3,0,0.4c0,3.5,1.7,3.8,3.3,3.9L97.3,32.8z">
  </path>
  <path class="st0" d="M54.3,14.1v21.8h-7.4V14.1H54.3z">
  </path>
  <path class="st1" d="M84.9,16.5c-2.3-0.1-4.4,1.6-4.5,4c0,0.3,0,0.6,0,0.8v14.5H73V21.1c0-4.4,4.1-7.8,10.4-7.8h1.5L84.9,16.5z
		 M72.9,4.9V8c-0.7,0-1.5,0-2.2,0.1c-0.7,0-1.4,0.2-2.1,0.4c-1.4,0.6-2.3,2.1-2.1,3.7v1.8h5.3v3.2h-5.3v18.6h-7.4V14
		c0-8.1,5.5-9.1,12.3-9.1H72.9z M129.4,35.9h-7.5V22.8c0-5.1-2-5.4-4.7-5.5h-0.5v18.6h-7.4V14c0.6,0.1,2.6,0.1,9.3,0.1
		c10.8,0,10.9,5,10.9,9.1L129.4,35.9z">
  </path>
  <path class="st0" d="M50.6,9.6c-2.7,0-4.8-2.1-4.8-4.8C45.8,2.1,48,0,50.6,0c2.7,0,4.8,2.1,4.8,4.8c0,0,0,0,0,0
		C55.4,7.5,53.3,9.6,50.6,9.6">
  </path>
  <path class="st1" d="M50.6,50c-2.7,0-4.8-2.1-4.8-4.8c0-2.7,2.1-4.8,4.8-4.8c2.7,0,4.8,2.1,4.8,4.8l0,0C55.4,47.9,53.3,50,50.6,50">
  </path>
  <path class="st0" d="M0,35.9v-31h7.5v9.2h2.4c5.2,0,7.8,2,9.1,4.4c0.9,2,1.4,4.1,1.3,6.3c0,3.5-1.1,11.1-9.7,11.1L0,35.9L0,35.9z
		 M12.6,24.7c0-4.8-1.1-7.7-4.5-7.7H7.5v15.8h0.7C11.5,32.9,12.6,29.7,12.6,24.7 M43.7,25.2c0.1,2.2-0.3,4.4-1.3,6.3
		c-1.3,2.4-3.9,4.4-9.1,4.4h-2.4v9.2h-7.5v-31H34C42.6,14.1,43.6,21.7,43.7,25.2 M30.9,17v15.8h0.6c3.4,0,4.5-2.9,4.5-7.7
		c0-5-1.1-8.2-4.4-8.2L30.9,17z">
  </path>
  <path class="st2" d="M195.2,2.1v45.8">
  </path>
 </g>
</svg>